<?xml version="1.0" encoding="UTF-8"?>
<svg id="a" data-name="Layer 1" xmlns="http://www.w3.org/2000/svg" width="512" height="512" viewBox="0 0 512 512">
  <path d="M421.661,250.6c14.082-4.332,27.221-11.043,39.047-19.945,2.088-1.551,4.191-3.237,6.251-5.01,2.557-2.176,5.069-4.494,7.467-6.892,2.47-2.47,4.819-5.022,6.991-7.595,1.767-2.053,3.397-4.09,4.983-6.227,8.901-11.862,15.597-25.026,19.902-39.123,1.219-3.917,2.249-7.944,3.061-11.967,1.692-8.324,2.558-16.9,2.574-25.493h.064V0h-127.99l-.268.064h-.001c-8.609.012-17.201.879-25.536,2.574-3.988.806-8.013,1.831-11.962,3.049-14.095,4.317-27.254,11.018-39.112,19.92-2.252,1.68-4.252,3.284-6.112,4.904l-.112.079c-2.559,2.161-5.114,4.514-7.595,6.995-2.483,2.483-4.797,4.997-6.901,7.492-1.664,1.922-3.346,4.017-4.996,6.228-8.905,11.855-15.614,25.001-19.94,39.073-1.231,3.978-2.269,8.03-3.087,12.042-1.645,8.058-2.511,16.351-2.574,24.649v.639h-63.772c-13.874,0-27.051-4.396-38.106-12.714-2.409-1.81-4.697-3.795-6.801-5.899-2.087-2.087-4.075-4.376-5.911-6.802-8.299-11.055-12.686-24.236-12.686-38.119V.409l-.025-.155-.185-.19h-.646v64.11c0,13.882-4.386,27.063-12.685,38.118-1.822,2.417-3.827,4.719-5.962,6.841-2.12,2.12-4.39,4.092-6.75,5.861-11.056,8.318-24.233,12.714-38.107,12.714H.345l-.345.137v.451l.026.16.639.623v-.528h63.516c13.873,0,27.05,4.396,38.108,12.715,2.377,1.774,4.66,3.758,6.787,5.899l.106.094h0c2.051,2.06,4.008,4.317,5.817,6.708,8.299,11.055,12.685,24.237,12.685,38.119v63.53l-.515.017.161.161c-8.398.052-16.777.911-24.913,2.567-4.017.809-8.051,1.839-11.988,3.062-14.102,4.31-27.257,11.007-39.099,19.908-2.181,1.63-4.28,3.311-6.261,5.021-2.54,2.141-5.082,4.482-7.558,6.956-2.375,2.377-4.676,4.873-6.85,7.429-1.771,2.055-3.464,4.168-5.034,6.278-8.894,11.823-15.607,24.964-19.952,39.06l-.014.058c-1.227,3.971-2.261,8.012-3.073,12.01-1.574,7.746-2.436,15.668-2.561,23.551v130.291l128.17.012.973-.012c8.289-.062,16.579-.929,24.64-2.574,3.998-.813,8.058-1.852,12.064-3.088,14.069-4.332,27.203-11.043,39.033-19.945,2.085-1.548,4.189-3.234,6.251-5.009,2.56-2.178,5.072-4.497,7.466-6.893,2.476-2.476,4.825-5.028,6.979-7.582,1.757-2.042,3.439-4.142,4.996-6.24,8.9-11.86,15.595-25.023,19.902-39.122,1.219-3.918,2.249-7.944,3.061-11.967,1.284-6.314,2.09-12.775,2.412-19.28.317,6.482,1.117,12.947,2.404,19.28.838,4.124,1.876,8.184,3.087,12.067,4.333,14.109,11.047,27.272,19.952,39.123,1.633,2.194,3.366,4.355,5.162,6.431,2.118,2.485,4.384,4.937,6.737,7.29,2.363,2.364,4.82,4.636,7.311,6.763,1.995,1.725,4.09,3.405,6.404,5.138,11.854,8.913,25.009,15.628,39.099,19.959,3.875,1.208,7.939,2.247,12.077,3.088,8.057,1.637,16.321,2.5,24.566,2.562l1.226.012,128.003-.012v-128.8l-.065.066c-.044-8.48-.914-16.924-2.586-25.107-.847-4.121-1.877-8.139-3.06-11.939-4.297-14.06-10.989-27.206-19.889-39.072-1.532-2.052-3.165-4.1-4.867-6.098-2.256-2.665-4.647-5.264-7.108-7.725-2.504-2.505-5.111-4.901-7.723-7.099l-.12-.112h-.014c-1.884-1.622-3.89-3.225-5.961-4.766-11.816-8.878-24.954-15.572-39.047-19.895-3.809-1.187-7.83-2.217-11.95-3.062-5.88-1.201-11.896-1.981-17.965-2.346,6.027-.36,12.047-1.14,17.964-2.343,4.005-.817,8.059-1.856,12.051-3.088ZM255.814,192.088h-.255c0,13.871-4.391,27.052-12.697,38.118-1.851,2.455-3.852,4.756-5.949,6.84h-.001c-2.076,2.09-4.351,4.066-6.761,5.875-11.053,8.301-24.23,12.689-38.108,12.689v.115h-63.503v-63.637c0-13.883,4.387-27.064,12.686-38.118,1.821-2.413,3.797-4.688,5.873-6.766,2.119-2.132,4.419-4.129,6.839-5.938,11.056-8.318,24.233-12.714,38.106-12.714h63.772v63.535Z"/>
  <path d="M30.812,211.515c1.624,2.825,3.63,5.443,5.966,7.783l.094.106c2.383,2.384,5.062,4.439,7.961,6.108,5.857,3.406,12.547,5.206,19.348,5.206,10.281,0,19.961-4.004,27.257-11.274,7.326-7.288,11.361-17.003,11.361-27.355s-4.016-20.008-11.31-27.317l-.106-.094c-7.283-7.237-16.938-11.22-27.203-11.22-10.348,0-20.06,4.036-27.347,11.365-7.269,7.284-11.272,16.967-11.272,27.266,0,6.812,1.8,13.509,5.204,19.366l.046.061Z"/>
  <path d="M36.872,91.491c7.294,7.296,16.992,11.314,27.309,11.314s19.975-4.004,27.257-11.274c7.326-7.288,11.361-17.003,11.361-27.355s-4.016-20.008-11.31-27.317l-.106-.094c-7.283-7.236-16.937-11.219-27.203-11.219-6.7,0-13.284,1.738-19.039,5.025l-.061.046c-3.027,1.703-5.801,3.821-8.247,6.293-2.438,2.438-4.522,5.178-6.15,8.081l-.058.074c-3.312,5.769-5.063,12.377-5.063,19.11,0,10.267,3.982,19.925,11.216,27.21l.094.106Z"/>
  <path d="M164.697,164.81h0c-7.268,7.31-11.271,16.998-11.271,27.278s4.016,20.007,11.31,27.316c7.307,7.296,17.005,11.314,27.308,11.314,6.689,0,13.281-1.742,19.064-5.038,2.97-1.676,5.731-3.774,8.206-6.237,2.503-2.503,4.63-5.304,6.28-8.262l.057-.074c3.279-5.765,5.011-12.342,5.011-19.019,0-10.306-4.016-20.007-11.31-27.317-7.279-7.295-16.978-11.314-27.309-11.314s-20.042,4.032-27.346,11.352Z"/>
  <path d="M192.043,102.804c10.303,0,19.988-4.004,27.27-11.275,7.318-7.307,11.349-17.021,11.349-27.355,0-6.572-1.688-13.073-4.882-18.8l-.036-.054c-1.727-3.1-3.877-5.948-6.392-8.463-2.559-2.56-5.417-4.717-8.495-6.412l-.076-.071h-.053c-5.658-3.16-12.116-4.83-18.684-4.83-10.33,0-20.042,4.031-27.347,11.352-7.268,7.31-11.271,16.997-11.271,27.277s4.016,20.008,11.31,27.316c7.294,7.296,16.991,11.314,27.308,11.314Z"/>
</svg>