<?xml version="1.0" encoding="UTF-8"?>
<svg id="a" data-name="Layer 1" xmlns="http://www.w3.org/2000/svg" width="512" height="512" viewBox="0 0 512 512">
  <path d="M509.412,358.127h0c-.848-4.124-1.878-8.142-3.061-11.941-4.299-14.064-10.992-27.212-19.892-39.077-1.532-2.052-3.166-4.101-4.867-6.099-2.249-2.658-4.641-5.257-7.109-7.726-2.503-2.504-5.11-4.901-7.735-7.111l-.119-.1h-.009c-1.876-1.615-3.88-3.219-5.957-4.768-11.863-8.902-25.007-15.597-39.066-19.897-3.916-1.221-7.933-2.251-11.939-3.063-5.885-1.203-11.908-1.981-17.981-2.345,6.033-.36,12.059-1.14,17.981-2.344,4.005-.814,8.065-1.853,12.066-3.088,14.095-4.349,27.234-11.065,39.053-19.961,2.264-1.692,4.272-3.305,6.163-4.955l.115-.08c2.55-2.168,5.05-4.474,7.429-6.855,2.461-2.461,4.806-5.008,6.951-7.553l.107-.119v-.01c1.737-2.01,3.392-4.077,4.919-6.142,8.896-11.855,15.597-25.021,19.918-39.129,1.222-3.976,2.247-8.008,3.05-11.98,1.693-8.329,2.559-16.907,2.574-25.496h0v-.32c-.013-8.653-.883-17.266-2.588-25.598-.847-4.122-1.877-8.14-3.061-11.941-4.299-14.063-10.991-27.21-19.892-39.077-1.532-2.052-3.166-4.101-4.867-6.099-2.253-2.661-4.645-5.261-7.109-7.726-2.504-2.505-5.111-4.902-7.73-7.105l-.12-.107h-.009c-1.885-1.622-3.89-3.226-5.962-4.767-11.863-8.903-25.007-15.598-39.066-19.897-3.918-1.221-7.935-2.251-11.938-3.062-8.3-1.697-16.872-2.567-25.481-2.588h-.394c-8.603.013-17.192.879-25.527,2.575-3.977.803-8.006,1.829-11.977,3.049-14.098,4.317-27.26,11.02-39.118,19.923-2.139,1.588-4.176,3.219-6.238,4.997-2.562,2.162-5.113,4.512-7.584,6.983-2.486,2.487-4.801,5-6.903,7.493-1.661,1.918-3.342,4.013-4.997,6.228-8.894,11.84-15.604,24.979-19.944,39.053l-.014.058c-1.227,3.974-2.261,8.014-3.073,12.011-1.3,6.396-2.085,12.914-2.4,19.432-.32-6.572-1.131-13.085-2.429-19.433-.845-4.124-1.875-8.145-3.062-11.953-4.321-14.085-11.014-27.228-19.892-39.064-1.532-2.052-3.166-4.101-4.854-6.086-2.258-2.666-4.654-5.27-7.122-7.739l-.104-.09c-2.41-2.419-4.978-4.784-7.632-7.032-1.986-1.69-4.033-3.324-6.085-4.856-11.863-8.903-25.007-15.598-39.066-19.897-3.798-1.183-7.815-2.213-11.938-3.062-8.304-1.697-16.882-2.568-25.497-2.588h-.378c-8.612.013-17.205.879-25.54,2.575-4.031.814-8.057,1.845-11.964,3.062-14.096,4.307-27.258,11.006-39.118,19.91-2.141,1.589-4.178,3.221-6.238,4.997-2.562,2.162-5.113,4.512-7.584,6.983-2.486,2.487-4.801,5-6.903,7.493-1.666,1.923-3.347,4.019-4.997,6.228-8.906,11.857-15.616,25.004-19.943,39.078-1.232,3.981-2.27,8.033-3.088,12.044C.93,110.429.063,118.723,0,127.022v2.201c.063,8.24.925,16.503,2.562,24.561.834,4.106,1.869,8.15,3.073,12.024l.014.057c4.334,14.111,11.049,27.275,19.955,39.128,1.572,2.114,3.261,4.218,5.162,6.433,2.121,2.487,4.388,4.939,6.738,7.29,2.394,2.395,4.824,4.645,7.249,6.713,2.121,1.821,4.293,3.563,6.456,5.176,11.848,8.907,25.006,15.628,39.106,19.974,4.036,1.242,8.105,2.281,12.092,3.088,5.874,1.199,11.88,1.975,17.919,2.333-6.045.363-12.046,1.137-17.919,2.332-4.031.814-8.057,1.845-11.964,3.062-14.096,4.307-27.258,11.006-39.118,19.909-2.142,1.591-4.179,3.223-6.238,4.997-2.564,2.164-5.115,4.514-7.584,6.984-2.486,2.487-4.801,5-6.903,7.493-1.669,1.927-3.35,4.023-4.997,6.228-8.906,11.856-15.616,25.004-19.943,39.078-1.232,3.981-2.27,8.033-3.088,12.044-1.645,8.059-2.512,16.353-2.575,24.652v2.201c.063,8.24.925,16.503,2.562,24.561.843,4.147,1.882,8.212,3.088,12.081,4.335,14.111,11.049,27.276,19.955,39.128,1.629,2.189,3.361,4.35,5.162,6.432,2.116,2.482,4.383,4.935,6.738,7.291s4.808,4.623,7.299,6.751c2.071,1.79,4.231,3.523,6.418,5.151,11.864,8.919,25.016,15.635,39.093,19.962,4.031,1.24,8.099,2.279,12.092,3.088,7.671,1.565,15.566,2.423,23.471,2.549l2.313.026,2.088-.026c7.879-.125,15.8-.988,23.543-2.562,3.995-.812,8.034-1.846,12.008-3.073l.059-.014c14.069-4.341,27.205-11.052,39.041-19.948,2.21-1.651,4.305-3.332,6.251-5.022,2.564-2.169,5.072-4.484,7.455-6.881,2.372-2.359,4.726-4.912,7.006-7.596,1.764-2.051,3.395-4.088,4.984-6.228,8.882-11.836,15.579-24.992,19.905-39.101,1.22-3.932,2.25-7.972,3.061-12.006,1.29-6.341,2.096-12.831,2.415-19.365.313,6.523,1.094,13.02,2.389,19.365.814,4.018,1.853,8.092,3.088,12.107,4.325,14.082,11.039,27.238,19.955,39.103,1.633,2.195,3.366,4.355,5.163,6.432,2.114,2.481,4.381,4.934,6.738,7.291,2.355,2.356,4.808,4.623,7.301,6.751,2.082,1.789,4.241,3.522,6.417,5.151,11.858,8.915,25.015,15.631,39.106,19.962,3.852,1.201,7.92,2.24,12.092,3.088,7.67,1.565,15.561,2.423,23.459,2.549l2.325.026,2.074-.026c7.88-.125,15.8-.988,23.543-2.562,3.997-.812,8.057-1.851,12.066-3.088,14.072-4.333,27.207-11.044,39.04-19.948,2.089-1.551,4.192-3.237,6.252-5.01,2.565-2.183,5.078-4.502,7.468-6.893,2.469-2.47,4.818-5.022,6.992-7.596,1.761-2.045,3.391-4.083,4.984-6.228,8.903-11.864,15.6-25.029,19.905-39.127,1.222-3.936,2.252-7.966,3.062-11.98,1.693-8.326,2.559-16.899,2.574-25.484h0v-.32c-.013-8.648-.883-17.265-2.588-25.61ZM146.923,236.736c-2.017-2.027-3.929-4.238-5.686-6.578-8.309-11.05-12.7-24.232-12.7-38.123s4.396-27.061,12.713-38.123h0c1.758-2.345,3.726-4.617,5.848-6.753,2.148-2.149,4.454-4.155,6.853-5.965,11.053-8.302,24.233-12.69,38.114-12.69s27.048,4.393,38.114,12.703c2.286,1.709,4.496,3.617,6.574,5.675l-89.829,89.853ZM230.178,114.946c-11.066,8.311-24.245,12.703-38.114,12.703s-27.061-4.388-38.113-12.69c-2.393-1.811-4.649-3.769-6.709-5.821l-.094-.107c-2.14-2.127-4.124-4.411-5.899-6.79-8.317-11.062-12.713-24.244-12.713-38.123s4.391-27.074,12.7-38.123c1.759-2.333,3.658-4.528,5.648-6.527l89.816,89.839c-2.052,2.032-4.245,3.928-6.523,5.637ZM114.98,102.242c-1.81,2.422-3.807,4.724-5.937,6.841-2.076,2.076-4.351,4.052-6.763,5.875-11.054,8.302-24.233,12.69-38.114,12.69s-27.06-4.388-38.113-12.69c-2.341-1.772-4.552-3.685-6.576-5.689L109.307,19.419c2.054,2.074,3.965,4.286,5.687,6.577,8.308,11.049,12.7,24.232,12.7,38.123s-4.396,27.062-12.713,38.123ZM26.052,141.195c11.054-8.302,24.233-12.69,38.114-12.69s27.06,4.388,38.113,12.69c2.402,1.808,4.69,3.802,6.803,5.927,2.144,2.132,4.128,4.416,5.898,6.79,8.317,11.06,12.713,24.243,12.713,38.123s-4.391,27.073-12.7,38.123c-1.761,2.339-3.686,4.569-5.725,6.628L19.439,146.934c2.058-2.051,4.282-3.98,6.614-5.739ZM141.237,281.753c1.759-2.333,3.658-4.527,5.648-6.527l89.816,89.84c-2.052,2.032-4.245,3.927-6.524,5.637-11.059,8.319-24.238,12.716-38.113,12.716s-27.049-4.393-38.113-12.702c-2.39-1.809-4.647-3.767-6.709-5.821l-.094-.107c-2.14-2.127-4.124-4.411-5.899-6.79-8.317-11.062-12.713-24.244-12.713-38.123s4.391-27.073,12.7-38.123ZM141.249,409.67c1.784-2.367,3.756-4.635,5.863-6.741,2.121-2.147,4.421-4.153,6.839-5.963,11.046-8.31,24.226-12.703,38.113-12.703s27.056,4.397,38.114,12.717c2.29,1.709,4.497,3.617,6.562,5.674l-6.597,6.599-83.221,83.241c-2.056-2.064-3.963-4.272-5.674-6.565-8.317-11.06-12.713-24.244-12.713-38.123s4.396-27.075,12.713-38.135ZM114.98,357.999v.002c-1.775,2.386-3.772,4.687-5.937,6.84-2.075,2.075-4.351,4.052-6.763,5.875-11.066,8.31-24.245,12.703-38.114,12.703s-27.048-4.393-38.113-12.702c-2.339-1.77-4.55-3.683-6.576-5.689l89.829-89.852c2.054,2.075,3.965,4.286,5.687,6.577,8.308,11.05,12.7,24.232,12.7,38.123s-4.396,27.063-12.713,38.123ZM26.053,396.965c11.047-8.31,24.226-12.703,38.113-12.703s27.066,4.393,38.113,12.703c2.374,1.784,4.663,3.774,6.802,5.913,2.131,2.132,4.116,4.417,5.899,6.791,8.317,11.06,12.713,24.247,12.713,38.135s-4.396,27.063-12.713,38.123h0c-1.746,2.338-3.666,4.562-5.711,6.616l-89.83-89.853c2.038-2.029,4.262-3.955,6.614-5.726ZM253.579,358.127h0c-.845-4.123-1.875-8.145-3.062-11.954-4.322-14.086-11.014-27.23-19.892-39.064-1.532-2.052-3.166-4.101-4.854-6.086-2.258-2.666-4.654-5.27-7.122-7.739l-.104-.09c-2.409-2.418-4.977-4.783-7.632-7.033-1.98-1.685-4.027-3.319-6.085-4.856-11.863-8.902-25.007-15.597-39.066-19.897-3.802-1.184-7.819-2.215-11.938-3.063-5.885-1.203-11.908-1.981-17.982-2.345,6.032-.36,12.059-1.14,17.982-2.344,4.003-.814,8.042-1.848,12.008-3.074l.059-.014c14.093-4.348,27.233-11.065,39.054-19.96,2.112-1.572,4.224-3.267,6.288-5.048,2.5-2.113,4.992-4.416,7.404-6.843,2.446-2.432,4.795-4.98,6.97-7.559l.1-.118v-.004c1.742-2.017,3.398-4.084,4.919-6.143,8.885-11.84,15.582-25.001,19.905-39.115,1.225-3.946,2.255-7.981,3.061-11.993,1.289-6.34,2.096-12.829,2.415-19.362.313,6.522,1.094,13.018,2.388,19.362.833,4.112,1.872,8.182,3.088,12.094,4.33,14.096,11.044,27.256,19.955,39.115,1.578,2.12,3.267,4.225,5.163,6.433,2.119,2.486,4.386,4.938,6.738,7.29,2.323,2.325,4.762,4.583,7.249,6.713,2.122,1.825,4.294,3.567,6.456,5.176,11.849,8.922,25.01,15.642,39.118,19.974,3.858,1.203,7.926,2.242,12.092,3.088,5.875,1.199,11.878,1.975,17.913,2.333-6.04.363-12.04,1.137-17.912,2.332-3.977.803-8.006,1.829-11.977,3.049-14.098,4.317-27.26,11.02-39.118,19.922-2.102,1.561-4.201,3.242-6.238,4.997-2.564,2.164-5.115,4.514-7.584,6.984-2.486,2.487-4.801,5-6.877,7.468-1.684,1.943-3.328,3.989-5.022,6.253-8.89,11.834-15.599,24.977-19.944,39.065-1.233,3.988-2.272,8.045-3.087,12.057-1.3,6.399-2.086,12.918-2.4,19.44-.32-6.568-1.131-13.084-2.429-19.44ZM370.839,25.995c8.3,11.056,12.688,24.239,12.688,38.123s-4.391,27.055-12.7,38.123c-1.848,2.452-3.85,4.753-5.95,6.842-2.119,2.119-4.39,4.091-6.751,5.862-11.065,8.311-24.249,12.703-38.126,12.703s-27.048-4.393-38.113-12.703c-2.324-1.747-4.535-3.654-6.576-5.676l83.131-83.152.195-.008v-.187l6.51-6.511c2.007,2.027,3.921,4.241,5.693,6.583ZM281.886,141.208c11.066-8.31,24.245-12.703,38.114-12.703s27.061,4.393,38.126,12.703c2.408,1.809,4.697,3.795,6.802,5.901,2.104,2.104,4.089,4.393,5.899,6.803,8.309,11.068,12.7,24.251,12.7,38.123s-4.388,27.067-12.688,38.123c-1.742,2.313-3.672,4.542-5.737,6.628l-89.83-89.853c2.026-2.017,4.25-3.943,6.614-5.726ZM397.083,153.912c1.771-2.362,3.743-4.633,5.861-6.753,2.081-2.094,4.382-4.101,6.84-5.964,11.054-8.302,24.233-12.69,38.114-12.69s27.06,4.388,38.113,12.69c2.333,1.757,4.549,3.669,6.588,5.688l-89.842,89.864c-2.064-2.086-3.977-4.301-5.687-6.59-8.309-11.05-12.7-24.232-12.7-38.123s4.396-27.061,12.713-38.123ZM486.011,114.959c-11.054,8.302-24.233,12.69-38.114,12.69s-27.06-4.388-38.113-12.69c-2.429-1.838-4.717-3.828-6.803-5.915-2.141-2.142-4.126-4.431-5.899-6.803-8.317-11.062-12.713-24.244-12.713-38.123s4.391-27.074,12.7-38.123h0c1.706-2.276,3.604-4.475,5.647-6.539l89.83,89.853c-2.015,2.006-4.213,3.905-6.537,5.649ZM486.011,370.716c-11.066,8.31-24.245,12.703-38.114,12.703s-27.048-4.393-38.113-12.702c-2.426-1.837-4.715-3.827-6.803-5.915-2.141-2.142-4.126-4.431-5.899-6.803-8.317-11.062-12.713-24.244-12.713-38.123s4.391-27.073,12.7-38.123h0c1.706-2.276,3.605-4.475,5.647-6.539l89.83,89.853c-2.015,2.006-4.213,3.905-6.537,5.649ZM397.083,409.67c1.811-2.403,3.783-4.674,5.861-6.753,2.1-2.113,4.401-4.115,6.84-5.951,11.047-8.31,24.226-12.703,38.113-12.703s27.066,4.393,38.113,12.703c2.337,1.756,4.548,3.668,6.576,5.687l-89.83,89.853c-2.056-2.077-3.963-4.288-5.674-6.577-8.317-11.06-12.713-24.244-12.713-38.123s4.396-27.075,12.713-38.135ZM370.839,281.752c8.3,11.057,12.688,24.239,12.688,38.123s-4.391,27.056-12.7,38.123c-1.848,2.452-3.85,4.753-5.95,6.842-2.119,2.119-4.39,4.091-6.752,5.862-11.058,8.319-24.241,12.716-38.126,12.716s-27.054-4.397-38.113-12.716c-2.322-1.745-4.532-3.653-6.576-5.676l83.131-83.152.195-.007v-.187l6.51-6.511c2.007,2.027,3.921,4.242,5.693,6.583ZM281.886,396.978c11.058-8.319,24.237-12.716,38.113-12.716s27.069,4.397,38.127,12.717c2.371,1.769,4.655,3.754,6.788,5.899l.106.094h0c2.095,2.104,4.048,4.358,5.806,6.697,8.309,11.068,12.7,24.255,12.7,38.136s-4.391,27.056-12.7,38.123c-1.781,2.362-3.705,4.587-5.724,6.616l-89.831-89.853c2.054-2.046,4.277-3.966,6.614-5.713Z"/>
  <path d="M275.047,274.987c2.116-2.13,4.417-4.127,6.84-5.938,11.058-8.319,24.237-12.716,38.113-12.716v-.754c-13.869,0-27.048-4.393-38.113-12.703-2.41-1.811-4.699-3.797-6.802-5.901-2.102-2.102-4.091-4.396-5.912-6.816-8.3-11.057-12.687-24.239-12.687-38.123h-.907c0,13.884-4.387,27.067-12.687,38.123-1.81,2.401-3.817,4.708-5.964,6.855-2.117,2.117-4.388,4.089-6.75,5.862-11.066,8.311-24.245,12.703-38.114,12.703v.319h0,0v.115h0,0v.32c13.876,0,27.056,4.397,38.113,12.716h.001c2.376,1.775,4.66,3.759,6.787,5.9l.106.094h0c2.051,2.061,4.009,4.318,5.819,6.71,8.3,11.057,12.687,24.239,12.687,38.123h.319s0,0,0,0h.268s0,0,0,0h.319c0-13.884,4.387-27.067,12.687-38.122,1.822-2.414,3.799-4.69,5.874-6.766Z"/>
</svg>