<?xml version="1.0" encoding="UTF-8"?>
<svg id="a" data-name="Layer 1" xmlns="http://www.w3.org/2000/svg" width="512" height="512" viewBox="0 0 512 512">
  <path d="M448.085,256.045c-9.427,0-18.367,2.034-26.426,5.694-4.234,1.932-8.237,4.312-11.921,7.088-2.43,1.83-4.733,3.826-6.881,5.988-2.136,2.124-4.106,4.401-5.922,6.807-8.02,10.683-12.765,23.964-12.765,38.358v-63.934h63.915Z"/>
  <path d="M383.901,256.109h.064v63.87c0-14.394-4.745-27.675-12.765-38.358-1.829-2.418-3.812-4.708-5.948-6.845h-.013c-2.136-2.149-4.426-4.133-6.843-5.949-3.696-2.776-7.7-5.156-11.946-7.101-8.045-3.646-16.986-5.681-26.4-5.681h63.915l-.064.064Z"/>
  <path d="M511.936,383.926v.192h-63.851c-14.39,0-27.666,4.747-38.347,12.782-2.43,1.83-4.733,3.826-6.881,5.988-2.136,2.124-4.106,4.401-5.909,6.794-8.02,10.684-12.778,23.977-12.778,38.371v63.922h.013l-.026.026h-.256l-.026-.026h.089v-63.922c0-14.394-4.758-27.687-12.778-38.371-1.816-2.418-3.799-4.696-5.935-6.832h-.013c-2.136-2.149-4.426-4.133-6.843-5.95-10.68-8.035-23.957-12.782-38.347-12.782h-63.915v.077l-.013-.013v-.256l.013-.013h63.915c14.39,0,27.666-4.76,38.347-12.782,2.405-1.804,4.681-3.774,6.805-5.911,2.149-2.137,4.144-4.44,5.986-6.883,8.02-10.684,12.778-23.977,12.778-38.358v-63.87h.192l.013.013v63.858c0,14.381,4.758,27.675,12.778,38.358,1.829,2.431,3.812,4.721,5.948,6.845,2.136,2.149,4.426,4.133,6.843,5.95,10.68,8.022,23.957,12.782,38.347,12.782h63.839l.013.013Z"/>
  <path d="M371.187,153.637c-1.816-2.418-3.799-4.708-5.935-6.845-2.136-2.137-4.426-4.12-6.856-5.95-10.68-8.022-23.957-12.769-38.347-12.769h-63.915v63.922c0,14.394,4.745,27.675,12.765,38.358,1.829,2.431,3.824,4.721,5.96,6.858,2.136,2.149,4.426,4.133,6.843,5.95,10.68,8.022,23.957,12.769,38.347,12.769,9.363,0,18.265-2.009,26.285-5.63,4.285-1.945,8.34-4.35,12.062-7.139,2.405-1.804,4.681-3.774,6.805-5.911,2.149-2.149,4.157-4.453,5.999-6.896,8.02-10.683,12.765-23.964,12.765-38.358s-4.758-27.675-12.778-38.358ZM281.703,230.366v-.013h.013l-.013.013ZM358.396,230.443l-.09-.09h.09v.09ZM347.115,219.158c-6.933,6.922-16.5,11.195-27.065,11.195-6.996,0-13.558-1.881-19.199-5.156-2.904-1.663-5.551-3.71-7.905-6.077-2.366-2.341-4.413-5.015-6.088-7.92-3.274-5.642-5.155-12.206-5.155-19.205v-38.269l-.09-.09h38.436c10.591,0,20.184,4.299,27.116,11.246,6.933,6.947,11.23,16.518,11.23,27.112s-4.31,20.228-11.281,27.163ZM358.396,153.65v-.013h.013l-.013.013Z"/>
  <path d="M383.965,191.995v63.934h-63.915c9.363,0,18.265-2.009,26.285-5.63,4.285-1.945,8.34-4.35,12.062-7.139,2.405-1.804,4.681-3.774,6.805-5.911,2.149-2.149,4.157-4.453,5.999-6.896,8.02-10.683,12.765-23.964,12.765-38.358Z"/>
  <path d="M511.936,128.138v-.064h-63.851c-14.39,0-27.666,4.747-38.347,12.769-2.43,1.842-4.733,3.838-6.894,5.988-2.123,2.124-4.093,4.401-5.897,6.807-8.02,10.684-12.778,23.964-12.778,38.358v63.934h63.915c14.39,0,27.666-4.747,38.347-12.769,2.405-1.817,4.681-3.787,6.805-5.911,2.149-2.162,4.157-4.465,5.986-6.896,8.033-10.683,12.778-23.964,12.778-38.358v-63.922l-.064.064ZM409.751,230.353l-.013.013v-.013h.013ZM409.738,153.637v.09l-.09-.09h.09ZM486.431,230.443l-.09-.09h.09v.09ZM486.431,153.65v-.013h.013l-.013.013Z"/>
  <path d="M448.085,0c-9.427,0-18.367,2.034-26.426,5.694-4.234,1.932-8.237,4.312-11.921,7.088-2.43,1.83-4.733,3.826-6.881,5.988-2.136,2.124-4.106,4.401-5.922,6.807-8.02,10.683-12.765,23.964-12.765,38.358V0h63.915Z"/>
  <path d="M383.901.064h.064v63.87c0-14.394-4.745-27.675-12.765-38.358-1.829-2.418-3.812-4.708-5.948-6.845h-.013c-2.136-2.149-4.426-4.133-6.843-5.949-3.696-2.776-7.7-5.156-11.946-7.101-8.045-3.646-16.986-5.681-26.4-5.681h63.915l-.064.064Z"/>
  <path d="M191.963,256.045c-9.427,0-18.367,2.034-26.426,5.706-4.247,1.932-8.237,4.312-11.921,7.088-2.43,1.817-4.733,3.813-6.881,5.975-2.123,2.124-4.093,4.401-5.909,6.807-8.02,10.683-12.765,23.964-12.765,38.358v-63.934h63.902Z"/>
  <path d="M127.779,256.109h.064v63.87c0-14.394-4.745-27.675-12.765-38.358-1.829-2.418-3.812-4.708-5.948-6.845h-.013c-2.136-2.149-4.413-4.133-6.83-5.937-3.697-2.789-7.7-5.169-11.959-7.114-8.045-3.646-16.986-5.681-26.387-5.681h63.902l-.064.064Z"/>
  <path d="M255.815,383.926v.192h-63.851c-14.39,0-27.666,4.76-38.347,12.795-2.43,1.817-4.733,3.813-6.881,5.975-2.123,2.124-4.093,4.401-5.897,6.794-8.02,10.684-12.778,23.977-12.778,38.371v63.922l-.026.026h-.256l-.026-.026h.09v-63.922c0-14.394-4.758-27.687-12.778-38.371-1.816-2.418-3.799-4.696-5.935-6.832h-.013c-2.136-2.149-4.413-4.133-6.83-5.937-10.68-8.035-23.97-12.795-38.347-12.795H.026v.09l-.026-.026v-.256l.026-.013h63.915c14.377,0,27.666-4.76,38.347-12.795,2.405-1.804,4.669-3.774,6.792-5.898,2.149-2.137,4.157-4.44,5.986-6.883,8.02-10.684,12.778-23.977,12.778-38.358v-63.87h.192l.026.026v63.845c0,14.381,4.758,27.675,12.778,38.358,1.816,2.431,3.799,4.708,5.935,6.845,2.136,2.137,4.426,4.12,6.843,5.937,10.68,8.035,23.957,12.795,38.347,12.795h63.839l.013.013Z"/>
  <path d="M127.779.064h.064v63.87c0-14.394-4.745-27.675-12.765-38.358-1.829-2.418-3.812-4.708-5.948-6.845h-.013c-2.136-2.149-4.413-4.133-6.83-5.937-3.697-2.789-7.7-5.169-11.959-7.114-8.045-3.646-16.986-5.681-26.387-5.681h63.902l-.064.064Z"/>
  <path d="M255.815,128.138v-.064h-63.851c-14.39,0-27.666,4.76-38.347,12.782-2.443,1.842-4.745,3.838-6.881,5.988-2.123,2.124-4.093,4.389-5.897,6.794-8.02,10.684-12.778,23.964-12.778,38.358v63.934h63.902c14.39,0,27.666-4.747,38.347-12.769,2.405-1.804,4.681-3.774,6.805-5.911,2.149-2.149,4.157-4.453,5.999-6.896,8.02-10.683,12.765-23.964,12.765-38.358v-63.922l-.064.064ZM153.617,230.366v-.013h.013l-.013.013ZM230.31,153.637h.013l-.013.013v-.013ZM153.617,153.637v.09l-.09-.09h.09ZM230.31,230.443l-.09-.09h.09v.09Z"/>
  <path d="M127.843,191.995v63.934h-63.902c9.363,0,18.252-2.009,26.272-5.63,4.298-1.945,8.352-4.35,12.074-7.152,2.405-1.804,4.669-3.774,6.792-5.898,2.149-2.149,4.157-4.453,5.999-6.896,8.02-10.683,12.765-23.964,12.765-38.358Z"/>
  <path d="M115.065,153.637c-1.816-2.418-3.799-4.708-5.935-6.845-2.136-2.137-4.413-4.12-6.843-5.937-10.68-8.022-23.97-12.782-38.347-12.782H.026v63.922c0,14.394,4.745,27.675,12.778,38.358,1.816,2.418,3.799,4.708,5.948,6.845v.013c2.136,2.137,4.426,4.12,6.843,5.95,10.68,8.022,23.957,12.769,38.347,12.769,9.363,0,18.252-2.009,26.272-5.63,4.298-1.945,8.352-4.35,12.074-7.152,2.405-1.804,4.669-3.774,6.792-5.898,2.149-2.149,4.157-4.453,5.999-6.896,8.02-10.683,12.765-23.964,12.765-38.358s-4.758-27.675-12.778-38.358ZM102.287,230.456l-.102-.102h.102v.102ZM91.006,219.171c-6.945,6.909-16.513,11.182-27.065,11.182-7.022,0-13.597-1.894-19.263-5.195l-.013-.013c-2.865-1.663-5.5-3.698-7.841-6.026-2.354-2.341-4.387-4.99-6.05-7.881v-.013c-.013-.013-.026-.026-.026-.038l-.013-.013c-3.274-5.642-5.142-12.193-5.142-19.179v-38.256l-.102-.102h38.449c10.578,0,20.171,4.299,27.116,11.234,6.933,6.947,11.23,16.531,11.23,27.124s-4.31,20.228-11.281,27.176Z"/>
  <path d="M191.963,0c-9.427,0-18.367,2.034-26.426,5.706-4.247,1.932-8.237,4.312-11.921,7.088-2.43,1.817-4.733,3.813-6.881,5.975-2.123,2.124-4.093,4.401-5.909,6.807-8.02,10.683-12.765,23.964-12.765,38.358V0h63.902Z"/>
</svg>