<?xml version="1.0" encoding="UTF-8"?>
<svg id="a" data-name="Layer 1" xmlns="http://www.w3.org/2000/svg" width="512" height="512" viewBox="0 0 512 512">
  <path d="M506.279,165.57c-1.918-4.229-4.325-8.285-7.153-12.053l-.191-.255h-12.428v-12.432l-.255-.191c-11.218-8.425-24.579-12.878-38.638-12.878s-27.431,4.449-38.637,12.866c-2.434,1.835-4.771,3.869-6.946,6.044-2.148,2.148-4.146,4.452-5.941,6.845-8.423,11.22-12.875,24.584-12.875,38.648s4.448,27.439,12.863,38.648c1.848,2.455,3.864,4.78,5.992,6.908,2.128,2.13,4.452,4.146,6.908,5.994,3.757,2.816,7.832,5.232,12.112,7.18l.141.057c8.332,3.735,17.208,5.629,26.383,5.629v.115c13.681,0,26.681,4.302,37.617,12.445v126.178c-10.997-7.945-23.975-12.138-37.617-12.138-14.078,0-27.438,4.453-38.637,12.879-2.452,1.846-4.789,3.875-6.946,6.032-2.107,2.108-4.106,4.41-5.941,6.845-8.423,11.219-12.875,24.587-12.875,38.66s4.452,27.429,12.875,38.648l.191.255h12.441v12.444l.255.191c3.757,2.816,7.832,5.232,12.112,7.18l.14.057c8.331,3.735,17.208,5.628,26.384,5.628h64.386V192.164c0-9.264-1.925-18.211-5.721-26.594ZM466.194,224.872c-5.623,3.218-12.048,4.919-18.58,4.919-10.05,0-19.495-3.914-26.599-11.02-7.104-7.105-11.016-16.554-11.016-26.607s3.895-19.444,10.965-26.557c7.111-7.138,16.575-11.069,26.65-11.069s19.484,3.914,26.599,11.018c7.104,7.12,11.017,16.569,11.017,26.608,0,6.438-1.651,12.78-4.775,18.347l-.151.151-.038.173c-1.649,2.898-3.702,5.585-6.103,7.986-2.375,2.364-5.055,4.399-7.97,6.051ZM485.231,447.596c0,6.492-1.683,12.889-4.868,18.498l-.002.003c-1.662,2.966-3.747,5.705-6.198,8.144-2.378,2.379-5.074,4.426-8.015,6.086l-.09.057c-5.596,3.165-11.971,4.839-18.444,4.839-9.961,0-19.33-3.845-26.412-10.833l-.186-.198c-7.104-7.118-11.017-16.563-11.017-26.595s3.895-19.457,10.965-26.569c7.111-7.138,16.575-11.069,26.65-11.069s19.484,3.913,26.599,11.018c7.104,7.12,11.017,16.574,11.017,26.62Z"/>
  <path d="M371.412,281.188c-1.809-2.409-3.825-4.729-5.992-6.896-2.169-2.169-4.488-4.185-6.895-5.994-3.723-2.796-7.777-5.203-12.05-7.154-8.38-3.798-17.325-5.724-26.587-5.724-13.651,0-26.629,4.188-37.617,12.125v-126.088c10.931-8.125,23.932-12.419,37.617-12.419v-.217c14.071,0,27.431-4.449,38.636-12.866l.255-.191v-12.444h12.428l.191-.254c8.432-11.213,12.888-24.577,12.888-38.648s-4.452-27.446-12.875-38.648c-1.809-2.409-3.825-4.73-5.992-6.896-2.171-2.171-4.491-4.188-6.895-5.994-3.725-2.798-7.778-5.204-12.05-7.155-8.38-3.798-17.325-5.724-26.587-5.724-14.078,0-27.438,4.453-38.638,12.879l-.255.191v12.444h-12.453l-.191.255c-8.414,11.208-12.862,24.572-12.862,38.648v116.342c-.931-5.22-2.488-10.302-4.701-15.189-1.917-4.228-4.323-8.284-7.152-12.053l-.191-.255h-12.441v-12.444l-.255-.191c-11.206-8.416-24.566-12.866-38.637-12.866s-27.432,4.449-38.639,12.867c-2.452,1.858-4.788,3.886-6.944,6.03-2.12,2.121-4.12,4.429-5.941,6.858-8.423,11.22-12.875,24.584-12.875,38.648s4.448,27.439,12.863,38.648l.191.255h12.453v12.457l.255.192c3.764,2.821,7.845,5.236,12.127,7.181,8.369,3.772,17.287,5.685,26.509,5.685v.115c13.693,0,26.692,4.297,37.616,12.432v38.362l.128.171c8.822,11.761,15.455,24.792,19.717,38.734,1.173,3.767,2.194,7.75,3.034,11.834,1.688,8.266,2.551,16.807,2.564,25.387l.065.637h.254v127.748h26.783v-115.112c10.925-8.135,23.925-12.432,37.617-12.432v-.204c14.059,0,27.419-4.453,38.636-12.878l.255-.191v-12.444h12.428l.191-.254c8.432-11.213,12.888-24.578,12.888-38.649s-4.452-27.445-12.875-38.648ZM282.272,64.417c0-6.539,1.71-12.98,4.946-18.628,1.622-2.875,3.652-5.547,6.032-7.942,2.425-2.425,5.144-4.494,8.084-6.152,5.596-3.209,12.012-4.905,18.555-4.905,10.063,0,19.509,3.913,26.599,11.018,7.104,7.119,11.017,16.569,11.017,26.608s-3.926,19.528-11.053,26.645c-7.106,7.081-16.54,10.982-26.562,10.982s-19.495-3.914-26.599-11.019c-7.104-7.12-11.017-16.569-11.017-26.607ZM282.272,357.462v-37.627c0-6.539,1.71-12.979,4.946-18.627,1.623-2.876,3.653-5.549,6.032-7.942,2.424-2.424,5.143-4.493,8.084-6.152,5.596-3.21,12.012-4.906,18.555-4.906,10.062,0,19.509,3.913,26.599,11.019,7.104,7.119,11.017,16.568,11.017,26.607s-3.926,19.528-11.053,26.645c-7.093,7.081-16.527,10.982-26.562,10.982h-37.617ZM192.112,154.538c10.054,0,19.5,3.917,26.599,11.031,7.104,7.12,11.017,16.564,11.017,26.595,0,6.522-1.696,12.94-4.905,18.56l-.002.004c-1.661,2.96-3.733,5.679-6.16,8.081-2.382,2.382-5.053,4.417-7.942,6.049-5.639,3.226-12.073,4.932-18.606,4.932-10.042,0-19.483-3.914-26.588-11.02-7.112-7.1-11.028-16.549-11.028-26.606s3.899-19.449,10.979-26.557c7.097-7.138,16.557-11.069,26.637-11.069Z"/>
  <path d="M109.93,274.291l-.196-.184c-2.067-2.061-4.323-4.015-6.711-5.81-3.717-2.791-7.766-5.198-12.037-7.154-8.38-3.798-17.329-5.724-26.6-5.724-13.641,0-26.62,4.193-37.616,12.138v-126.089c10.942-8.135,23.941-12.432,37.616-12.432v-.217c14.071,0,27.431-4.449,38.637-12.866l.255-.191v-12.444h12.441l.191-.255c8.422-11.22,12.874-24.584,12.874-38.648s-4.447-27.439-12.863-38.65c-1.86-2.459-3.876-4.778-5.992-6.895l-.194-.182c-2.067-2.063-4.324-4.017-6.713-5.812-3.719-2.793-7.768-5.199-12.037-7.155-8.38-3.798-17.329-5.724-26.6-5.724-14.066,0-27.426,4.458-38.637,12.892l-.255.191v12.431h-12.441l-.191.255C4.448,36.977,0,50.342,0,64.417v383.18h.638s0,0,0,0h.638c0-9.061,1.87-17.793,5.557-25.954,1.895-4.201,4.271-8.218,7.062-11.939,1.799-2.387,3.758-4.645,5.825-6.711,2.105-2.118,4.391-4.103,6.796-5.901,10.987-8.266,24.082-12.635,37.87-12.635v-.204c14.059,0,27.419-4.453,38.637-12.878l.255-.191v-12.444h12.441l.191-.255c8.422-11.22,12.874-24.584,12.874-38.648s-4.447-27.438-12.863-38.65c-1.86-2.458-3.876-4.778-5.992-6.895ZM31.596,45.967l.094-.128c1.614-2.882,3.652-5.571,6.058-7.991,2.437-2.437,5.164-4.511,8.104-6.161l.091-.057c5.594-3.166,11.97-4.839,18.443-4.839,10.063,0,19.509,3.913,26.599,11.018,7.104,7.12,11.017,16.569,11.017,26.608s-3.926,19.528-11.054,26.645c-7.106,7.081-16.54,10.982-26.562,10.982s-19.482-3.914-26.599-11.019c-7.104-7.119-11.017-16.568-11.017-26.607,0-6.506,1.692-12.92,4.826-18.45ZM31.62,301.362l.07-.104c1.614-2.882,3.652-5.571,6.058-7.991,2.438-2.439,5.164-4.511,8.104-6.162l.084-.053c5.597-3.168,11.975-4.843,18.45-4.843,10.063,0,19.509,3.913,26.599,11.019,7.104,7.12,11.017,16.569,11.017,26.607s-3.926,19.528-11.054,26.645c-7.093,7.081-16.527,10.982-26.562,10.982s-19.495-3.914-26.599-11.019c-7.104-7.12-11.017-16.569-11.017-26.608,0-6.477,1.677-12.863,4.85-18.474Z"/>
</svg>