<?xml version="1.0" encoding="UTF-8"?>
<svg id="a" data-name="Layer 1" xmlns="http://www.w3.org/2000/svg" width="512" height="512" viewBox="0 0 512 512">
  <path d="M511.936,127.834v.192h-63.853c-14.39,0-27.667,4.76-38.348,12.783-2.443,1.843-4.746,3.839-6.882,5.989-2.123,2.124-4.093,4.389-5.897,6.795-8.02,10.685-12.778,23.967-12.778,38.363v63.942l-.026.026h-.256l-.026-.026h.09v-63.942c0-14.396-4.758-27.678-12.778-38.363-1.816-2.418-3.799-4.709-5.935-6.846s-4.413-4.12-6.843-5.937c-10.681-8.023-23.97-12.783-38.348-12.783h-63.917v.09l-.026-.026v-.256l.026-.026h63.917c14.377,0,27.667-4.76,38.348-12.783,2.405-1.804,4.669-3.775,6.792-5.899,2.149-2.137,4.157-4.44,5.986-6.884,8.02-10.685,12.778-23.98,12.778-38.363V0h.192l.026.026v63.853c0,14.383,4.758,27.678,12.778,38.363,1.816,2.431,3.799,4.709,5.935,6.846s4.426,4.12,6.843,5.937c10.68,8.023,23.958,12.783,38.348,12.783h63.827l.026.026Z" stroke="#000" stroke-miterlimit="10" stroke-width=".5"/>
  <path d="M358.405,191.955c0,10.621-4.311,20.231-11.282,27.179-6.946,6.91-16.5,11.184-27.066,11.184-7.022,0-13.597-1.894-19.263-5.195-2.878-1.663-5.513-3.698-7.854-6.04-2.354-2.342-4.387-4.99-6.05-7.882-3.3-5.656-5.18-12.233-5.18-19.245,0-10.57,4.259-20.128,11.179-27.077,6.946-6.974,16.552-11.286,27.168-11.286s20.172,4.3,27.117,11.235c6.946,6.948,11.231,16.533,11.231,27.128Z" stroke="#000" stroke-miterlimit="10" stroke-width=".5"/>
  <path d="M486.444,191.955c0,6.872-1.804,13.308-4.976,18.887l-.013.013c-1.701,3.045-3.837,5.822-6.306,8.266-2.405,2.406-5.129,4.491-8.097,6.168h-.013c-.013.013-.026.026-.038.026-5.577,3.186-12.036,5.003-18.918,5.003-10.591,0-20.159-4.299-27.104-11.235-6.946-6.935-11.243-16.533-11.243-27.128s4.272-20.128,11.192-27.077c6.933-6.974,16.552-11.286,27.155-11.286s20.197,4.3,27.117,11.248c6.946,6.948,11.243,16.52,11.243,27.115Z" stroke="#000" stroke-miterlimit="10" stroke-width=".5"/>
  <path d="M486.444,63.878c0,10.608-4.311,20.218-11.282,27.166-6.933,6.91-16.5,11.197-27.079,11.197s-20.172-4.299-27.117-11.235c-6.933-6.948-11.23-16.545-11.23-27.128s4.285-20.141,11.192-27.089c6.946-6.961,16.552-11.273,27.155-11.273,6.754,0,13.085,1.74,18.598,4.811q.013.013.026.026t.026.013c3.121,1.715,5.961,3.877,8.468,6.385,2.507,2.508,4.681,5.374,6.408,8.497l.013.013c3.07,5.515,4.822,11.862,4.822,18.618Z" stroke="#000" stroke-miterlimit="10" stroke-width=".5"/>
  <path d="M358.405,63.878c0,10.608-4.311,20.231-11.282,27.166-6.946,6.923-16.5,11.197-27.066,11.197s-20.171-4.299-27.117-11.235v-.013c-6.946-6.948-11.231-16.533-11.231-27.115,0-6.91,1.816-13.385,5.027-18.977,1.676-2.969,3.761-5.694,6.165-8.1,2.43-2.457,5.193-4.568,8.225-6.27l.026-.026c5.577-3.186,12.024-4.99,18.905-4.99,10.591,0,20.159,4.287,27.104,11.235h.013c6.946,6.948,11.231,16.533,11.231,27.128Z" stroke="#000" stroke-miterlimit="10" stroke-width=".5"/>
  <path d="M384.179,256.013v.09l-.026-.026h-.256c-8.736.013-17.255.896-25.493,2.572-4.055.819-8.046,1.843-11.96,3.045-14.236,4.363-27.424,11.158-39.064,19.898-2.123,1.587-4.208,3.25-6.229,4.99l-.026.026c-2.609,2.201-5.129,4.53-7.547,6.948-2.379,2.38-4.669,4.85-6.843,7.422-1.752,2.035-3.428,4.12-5.027,6.27-8.736,11.632-15.541,24.799-19.928,39.028-1.215,3.928-2.238,7.946-3.083,12.041-1.548,7.614-2.43,15.471-2.558,23.519v2.06l-.026.013v.256l.026.026v127.782h127.731l.026.026h.256l.026-.026h2.047c8.046-.128,15.899-1.011,23.51-2.559,4.093-.832,8.109-1.868,12.049-3.084,14.211-4.376,27.373-11.184,38.987-19.924,2.136-1.587,4.221-3.263,6.242-5.003,2.571-2.188,5.065-4.491,7.457-6.884,2.43-2.431,4.771-4.965,6.997-7.601v-.013c1.74-2.022,3.39-4.082,4.976-6.206,8.724-11.644,15.516-24.825,19.865-39.067,1.215-3.916,2.238-7.908,3.057-11.964,1.676-8.241,2.558-16.763,2.571-25.503v-.256l-.013-.013h.077v-127.885h-127.821ZM281.71,409.771l-.102-.102h.102v.102ZM358.405,486.497l-.09-.09h.09v.09ZM358.405,358.408l-.09-.09h.09v.09ZM409.736,409.759l-.09-.09h.09v.09ZM409.736,281.669l-.077-.077h.077v.077ZM486.444,358.408l-.09-.09h.09v.09Z" stroke="#000" stroke-miterlimit="10" stroke-width=".5"/>
  <path d="M128.051,256.09l-.013-.013h-.256l.064-.064H.013v127.885l-.013.013v.256l.013.013v.96c.064,8.394.947,16.597,2.558,24.53.831,4.108,1.867,8.138,3.083,12.092,4.375,14.242,11.179,27.409,19.928,39.054,1.637,2.201,3.351,4.338,5.142,6.411,2.149,2.521,4.4,4.952,6.741,7.294,2.341,2.342,4.771,4.594,7.291,6.744,2.072,1.791,4.208,3.506,6.408,5.144,11.64,8.753,24.802,15.56,39.038,19.936,3.952,1.216,7.969,2.252,12.075,3.084,7.585,1.548,15.413,2.418,23.433,2.546h2.047l.026.026h.256l.026-.026h127.821v-127.872l-.064.064v-.256l-.013-.013h.077v-127.885h-127.834v.077ZM25.582,409.759l-.09-.09h.09v.09ZM25.582,281.669l-.077-.077h.077v.077ZM102.277,358.318v.077l-.077-.077h.077ZM102.277,486.484l-.077-.077h.077v.077ZM102.277,409.682v-.013h.013l-.013.013ZM127.847,448.045c0-14.396-4.758-27.691-12.791-38.376-1.816-2.418-3.799-4.696-5.935-6.833s-4.426-4.133-6.843-5.95c-10.68-8.036-23.958-12.783-38.348-12.783h63.917v63.942ZM153.62,409.759l-.09-.09h.09v.09ZM230.316,409.682v-.013h.013l-.013.013ZM230.316,358.318v.077l-.077-.077h.077ZM230.316,486.408v.077l-.077-.077h.077ZM153.62,281.592v.077l-.077-.077h.077ZM146.777,365.164c2.136,2.137,4.426,4.12,6.843,5.95,10.681,8.023,23.958,12.783,38.348,12.783h-63.917v-63.942c0,14.383,4.758,27.678,12.791,38.363,1.816,2.431,3.799,4.709,5.935,6.846Z" stroke="#000" stroke-miterlimit="10" stroke-width=".5"/>
  <path d="M230.316,63.878c0,10.608-4.311,20.218-11.269,27.166-6.946,6.91-16.5,11.197-27.079,11.197s-20.172-4.299-27.117-11.235c-6.946-6.948-11.231-16.545-11.231-27.128s4.272-20.141,11.192-27.089c6.946-6.961,16.552-11.273,27.155-11.273,6.779,0,13.136,1.753,18.662,4.85,3.108,1.728,5.961,3.89,8.455,6.385,2.494,2.495,4.656,5.349,6.383,8.458,3.095,5.528,4.848,11.888,4.848,18.67Z" stroke="#000" stroke-miterlimit="10" stroke-width=".5"/>
  <path d="M230.316,191.955c0,6.872-1.804,13.321-4.989,18.9q0,.013-.013.026c-1.701,3.033-3.825,5.809-6.28,8.241-2.405,2.406-5.116,4.479-8.084,6.155l-.013.013c-5.59,3.199-12.062,5.029-18.969,5.029-10.591,0-20.159-4.299-27.104-11.235-6.946-6.935-11.243-16.533-11.243-27.128s4.259-20.128,11.192-27.077c6.933-6.974,16.539-11.286,27.155-11.286s20.184,4.3,27.117,11.248c6.946,6.948,11.231,16.52,11.231,27.115Z" stroke="#000" stroke-miterlimit="10" stroke-width=".5"/>
  <path d="M102.277,191.955c0,10.621-4.311,20.231-11.282,27.166-6.946,6.923-16.5,11.197-27.066,11.197-7.009,0-13.571-1.881-19.225-5.17l-.026-.026c-2.878-1.663-5.513-3.698-7.854-6.04-2.366-2.342-4.413-5.016-6.089-7.921-3.287-5.643-5.155-12.208-5.155-19.207,0-10.57,4.259-20.128,11.192-27.077,6.933-6.974,16.539-11.286,27.155-11.286s20.184,4.3,27.117,11.248c6.946,6.948,11.23,16.52,11.23,27.115Z" stroke="#000" stroke-miterlimit="10" stroke-width=".5"/>
  <path d="M102.277,63.878c0,10.608-4.311,20.218-11.269,27.166-6.946,6.91-16.5,11.197-27.079,11.197s-20.172-4.299-27.117-11.235c-6.946-6.948-11.23-16.545-11.23-27.128,0-6.884,1.804-13.334,4.988-18.913l.026-.026c1.676-2.994,3.761-5.733,6.178-8.151,2.443-2.457,5.219-4.581,8.263-6.283l.013-.013c5.577-3.174,12.011-4.978,18.88-4.978,10.591,0,20.172,4.287,27.117,11.235,6.946,6.948,11.23,16.533,11.23,27.128Z" stroke="#000" stroke-miterlimit="10" stroke-width=".5"/>
  <path d="M255.821,127.834v.192h-63.853c-14.39,0-27.667,4.747-38.348,12.771-2.443,1.843-4.745,3.852-6.882,6.001-2.123,2.124-4.093,4.389-5.897,6.795-8.033,10.685-12.791,23.967-12.791,38.363v63.942h.013l-.026.026h-.256l-.026-.026h.09v-63.942c0-14.396-4.758-27.678-12.791-38.363-1.804-2.418-3.786-4.696-5.935-6.833-2.123-2.137-4.413-4.133-6.843-5.963-10.68-8.023-23.958-12.771-38.348-12.771H.013v.077l-.013-.013v-.256l.026-.026h63.904c14.39,0,27.667-4.747,38.348-12.771,2.405-1.817,4.682-3.788,6.805-5.912,2.162-2.15,4.157-4.453,5.973-6.884,8.033-10.685,12.791-23.98,12.791-38.363V0h.192l.013.013v63.866c0,14.383,4.758,27.678,12.791,38.363,1.816,2.431,3.799,4.709,5.935,6.846s4.426,4.12,6.843,5.95c10.681,8.023,23.958,12.771,38.348,12.771h63.827l.026.026Z" stroke="#000" stroke-miterlimit="10" stroke-width=".5"/>
</svg>