<?xml version="1.0" encoding="UTF-8"?>
<svg id="a" data-name="Layer 1" xmlns="http://www.w3.org/2000/svg" width="512" height="512" viewBox="0 0 512 512">
  <path d="M511.787,127.703h-127.411v-63.526c0-13.884,4.388-27.065,12.687-38.119,1.833-2.429,3.814-4.705,5.887-6.767,2.1-2.113,4.401-4.115,6.839-5.95,3.657-2.756,7.643-5.126,11.847-7.044,8.268-3.755,17.105-5.658,26.264-5.658v-.639h-127.892v.639c9.146,0,17.973,1.899,26.238,5.645,4.21,1.928,8.205,4.302,11.874,7.057,2.426,1.823,4.714,3.812,6.801,5.912l.106.094h0c2.054,2.063,4.011,4.32,5.819,6.709,8.3,11.056,12.687,24.238,12.687,38.121v63.527l-63.524.216c-14.019,0-27.331,4.432-38.496,12.819-2.443,1.852-4.771,3.874-6.92,6.009-2.112,2.113-4.104,4.413-5.919,6.833-2.803,3.725-5.213,7.795-7.165,12.098l-.029.076c-3.09,6.869-4.9,14.116-5.442,21.596-.545-7.545-2.378-14.848-5.51-21.761-1.91-4.214-4.308-8.254-7.127-12.009h0c-1.828-2.434-3.832-4.745-5.957-6.871s-4.439-4.133-6.883-5.972c-11.164-8.386-24.475-12.818-38.494-12.818h-63.511v-63.743c0-13.883,4.387-27.065,12.686-38.119,1.822-2.413,3.797-4.689,5.874-6.767,2.119-2.132,4.419-4.129,6.839-5.938,3.674-2.769,7.66-5.139,11.848-7.044,8.258-3.763,17.094-5.671,26.264-5.671v-.639h-127.879v.639c9.137,0,17.96,1.899,26.225,5.645,4.227,1.929,8.225,4.308,11.888,7.07,2.375,1.773,4.658,3.757,6.787,5.899l.107.094h0c2.054,2.064,4.011,4.32,5.818,6.709,8.3,11.055,12.687,24.237,12.687,38.121v63.526H.344l-.16.026-.185.19.025,64.166c0,14.028,4.436,27.343,12.828,38.504,1.812,2.412,3.788,4.692,5.877,6.778l.094.105c2.107,2.108,4.417,4.117,6.87,5.972,11.164,8.386,24.475,12.819,38.495,12.819h63.156v.063h.319c8.595.013,17.163.879,25.464,2.576l.384.078h0s.189.037.189.037c3.985.807,7.981,1.832,11.878,3.047,13.989,4.277,27.066,10.938,38.871,19.796,2.097,1.567,4.129,3.193,6.093,4.868,3.039,1.67,5.861,3.798,8.386,6.323,2.493,2.493,4.62,5.311,6.358,8.428,1.676,1.97,3.301,4.007,4.83,6.055,8.856,11.806,15.515,24.886,19.793,38.88,1.178,3.783,2.203,7.779,3.045,11.88,1.696,8.298,2.562,16.872,2.575,25.482l.023.113-.023.023v.132c-.013,8.562-.875,17.11-2.562,25.406h0c-.807,3.999-1.832,8.008-3.046,11.918-4.284,14.029-10.947,27.127-19.805,38.931-1.579,2.127-3.2,4.153-4.946,6.182l-.059.075c-1.665,2.969-3.757,5.723-6.219,8.185-2.435,2.422-5.15,4.485-8.122,6.169-2.049,1.765-4.141,3.441-6.218,4.984-11.775,8.859-24.845,15.537-38.845,19.848-3.988,1.23-8.027,2.263-12.005,3.071-7.703,1.567-15.584,2.425-23.424,2.55l.005.639h251.439l.005-.639c-7.86-.125-15.715-.979-23.347-2.537-4.126-.839-8.169-1.872-12.017-3.072h-.001c-14.02-4.309-27.11-10.991-38.908-19.861-2.303-1.724-4.387-3.396-6.367-5.107l-.067-.051c-2.865-1.647-5.512-3.676-7.867-6.031-2.329-2.33-4.353-4.973-6.066-7.919-1.779-2.059-3.502-4.208-5.122-6.386-8.861-11.791-15.542-24.89-19.856-38.93-1.2-3.852-2.233-7.895-3.071-12.019-1.629-8.016-2.487-16.238-2.549-24.437h-.256s0-.918,0-.918v-1.277l.256.002c.062-8.254.924-16.506,2.562-24.526.812-3.99,1.846-8.022,3.071-11.982,4.306-14.003,10.982-27.083,19.843-38.879,1.682-2.248,3.316-4.282,5.031-6.272,1.629-2.912,3.688-5.627,6.118-8.071,2.485-2.485,5.243-4.583,8.249-6.271,1.959-1.686,3.985-3.308,6.192-4.958,11.801-8.859,24.896-15.527,38.922-19.822,3.93-1.211,7.934-2.232,11.902-3.033,8.293-1.688,16.844-2.55,25.413-2.563h.131l.155-.154,2.044-.025c7.879-.125,15.799-.988,23.541-2.562,4.004-.817,8.06-1.856,12.053-3.088,14.078-4.33,27.222-11.046,39.065-19.959,2.261-1.69,4.268-3.302,6.161-4.954l.115-.081c2.55-2.168,5.049-4.473,7.429-6.854,2.46-2.46,4.805-5.008,6.95-7.552l.107-.119v-.009c1.746-2.022,3.401-4.088,4.918-6.142,8.895-11.853,15.596-25.017,19.917-39.126,1.221-3.972,2.246-8.003,3.049-11.979,1.696-8.334,2.562-16.924,2.575-25.533v-.387l-.213-.213ZM31.276,211.044c-3.318-5.731-5.072-12.286-5.072-18.959,0-10.124,3.933-19.647,11.074-26.816,7.179-7.208,16.737-11.177,26.91-11.177s19.674,3.952,26.86,11.126c7.173,7.188,11.124,16.73,11.124,26.866s-3.968,19.735-11.174,26.916c-7.18,7.143-16.702,11.076-26.81,11.076-6.704,0-13.302-1.779-19.028-5.107l-.066-.051c-2.816-1.635-5.429-3.643-7.767-5.97-2.311-2.298-4.314-4.901-5.953-7.736l-.099-.17ZM282.025,192.085c0-10.115,3.937-19.638,11.086-26.816,7.167-7.208,16.719-11.177,26.898-11.177s19.692,3.956,26.86,11.139c7.173,7.188,11.124,16.725,11.124,26.853,0,10.182-3.968,19.736-11.174,26.904h0c-7.162,7.151-16.683,11.089-26.809,11.089-6.688,0-13.264-1.766-19.019-5.108-2.841-1.627-5.475-3.652-7.83-6.02-2.324-2.299-4.353-4.938-6.03-7.843-3.34-5.756-5.106-12.334-5.106-19.022Z"/>
</svg>