<?xml version="1.0" encoding="UTF-8"?>
<svg id="a" data-name="Layer 1" xmlns="http://www.w3.org/2000/svg" width="512" height="512" viewBox="0 0 512 512">
  <path d="M511.923,383.914h-63.827c14.377,0,27.667-4.76,38.348-12.795v-12.692l-.09-.089h-38.258c-10.591,0-20.172-4.286-27.117-11.234v-.013c-6.946-6.947-11.23-16.518-11.23-27.112v-38.269l-.09-.09h-12.701c-8.033,10.683-12.778,23.964-12.778,38.358v-63.845l-.026-.026h-.179v63.87c0-14.394-4.758-27.675-12.778-38.358h-12.791v38.358c0,10.607-4.311,20.215-11.269,27.163-6.946,6.922-16.5,11.195-27.079,11.195h-38.348v12.795c10.681,8.022,23.958,12.782,38.348,12.782h-63.917l-.026.026v.23l.026.026v-.077h63.917c-14.39,0-27.667,4.747-38.348,12.782v12.782h38.348c10.591,0,20.184,4.299,27.117,11.246,6.946,6.947,11.231,16.531,11.231,27.124v38.358h12.778c8.033-10.683,12.791-23.977,12.791-38.358v63.922h-.09l.026.026h.243l.026-.026v-63.922c0,14.381,4.758,27.675,12.791,38.358h12.778v-38.358c0-10.568,4.259-20.139,11.179-27.086,6.946-6.973,16.552-11.285,27.168-11.285h38.348v-12.769c-10.68-8.035-23.97-12.795-38.348-12.795h63.84v-.192l-.013-.013ZM358.328,358.337h.077v.077l-.077-.077ZM358.405,409.695v-.013h.013l-.013.013ZM409.748,409.784l-.102-.102h.102v.102Z"/>
  <path d="M384.179,0v.09l-.026-.026h-.243c-8.736.013-17.268.896-25.505,2.572-4.055.819-8.046,1.842-11.96,3.045-14.236,4.363-27.424,11.157-39.064,19.896-2.136,1.599-4.221,3.263-6.255,5.015-2.609,2.201-5.116,4.517-7.534,6.947h-.013c-2.379,2.38-4.669,4.849-6.843,7.421-1.752,2.034-3.428,4.12-5.027,6.269-8.736,11.63-15.541,24.796-19.928,39.023-1.215,3.928-2.238,7.945-3.083,12.04-1.548,7.613-2.43,15.469-2.558,23.516v2.047h.013l-.038.038v.23l.026.026v127.779h127.744l.026.026h.243l.026-.026h2.047c8.046-.128,15.899-1.011,23.523-2.559,4.08-.832,8.097-1.868,12.036-3.083,14.224-4.389,27.373-11.182,39-19.934,2.136-1.587,4.221-3.263,6.255-5.015,2.571-2.175,5.052-4.465,7.432-6.858,2.43-2.431,4.771-4.964,6.997-7.6,1.727-2.022,3.39-4.094,4.976-6.218,8.724-11.643,15.516-24.821,19.877-39.062,1.202-3.915,2.226-7.907,3.044-11.963,1.676-8.24,2.558-16.761,2.571-25.5v-.256l-.026-.026h.09V0h-127.821ZM358.405,230.443l-.09-.09h.09v.09ZM281.71,230.353h.013l-.013.013v-.013ZM358.405,102.369l-.077-.077h.077v.077ZM358.405,153.637h.013l-.013.013v-.013ZM281.71,153.637v.09l-.09-.09h.09ZM486.443,102.382l-.09-.09h.09v.09ZM409.748,25.576v.09l-.09-.09h.09ZM409.748,153.739l-.102-.102h.102v.102Z"/>
  <path d="M128.051,256.045v.077l-.013-.013h-.256c-8.736.013-17.268.896-25.505,2.572-4.055.819-8.046,1.842-11.947,3.058-14.236,4.35-27.424,11.144-39.064,19.883-2.136,1.587-4.208,3.25-6.229,4.99-2.622,2.214-5.142,4.542-7.572,6.973-2.392,2.393-4.694,4.875-6.869,7.459-1.752,2.022-3.415,4.107-5.014,6.244-8.736,11.63-15.528,24.783-19.916,39.011-1.215,3.928-2.251,7.945-3.083,12.04-1.548,7.613-2.43,15.469-2.558,23.516v2.06l-.026.013v.256l.026.026v127.766h127.731l.026.026h.256l.026-.026h2.047c8.046-.128,15.899-1.011,23.51-2.559,4.093-.832,8.11-1.868,12.036-3.083,14.224-4.389,27.373-11.182,39-19.921,2.136-1.599,4.221-3.263,6.242-5.015,2.584-2.175,5.065-4.478,7.457-6.871,2.43-2.431,4.758-4.952,6.971-7.574,1.74-2.021,3.402-4.094,4.988-6.231,8.736-11.643,15.528-24.834,19.877-39.075,1.215-3.915,2.238-7.907,3.057-11.963,1.676-8.24,2.558-16.761,2.571-25.5v-.256l-.013-.013h.077v-127.869h-127.834ZM102.277,486.488l-.077-.077h.077v.077ZM102.277,358.414l-.077-.077h.077v.077ZM102.277,409.682h.013l-.013.013v-.013ZM25.582,409.682v.09l-.09-.09h.09ZM230.316,358.414l-.077-.077h.077v.077ZM153.62,281.621v.077l-.077-.077h.077ZM153.62,409.771l-.089-.09h.089v.09ZM230.316,409.695v-.013h.013l-.013.013Z"/>
  <path d="M255.795,127.856h-63.827c14.39,0,27.667-4.747,38.348-12.769v-12.718l-.077-.077h-38.271c-10.591,0-20.172-4.299-27.117-11.234-6.946-6.947-11.231-16.543-11.231-27.124V25.653l-.077-.077h-12.714c-8.033,10.683-12.778,23.964-12.778,38.358V.077l-.013-.013h-.192v63.87c0-14.394-4.746-27.675-12.778-38.358h-12.791v38.358c0,10.607-4.311,20.215-11.269,27.163-6.946,6.909-16.5,11.195-27.079,11.195H25.582v12.782c10.68,8.022,23.97,12.782,38.348,12.782H.026l-.026.026v.256l.026.026v-.09h63.904c-14.377,0-27.667,4.76-38.348,12.782v12.782h38.348c10.591,0,20.184,4.299,27.117,11.246,6.946,6.947,11.231,16.518,11.231,27.112v38.358h12.791c8.033-10.683,12.778-23.964,12.778-38.358v63.934h-.09l.026.026h.256l.026-.026h-.013v-63.934c0,14.394,4.746,27.675,12.778,38.358h12.791v-38.358c0-10.568,4.259-20.126,11.192-27.073,6.933-6.973,16.539-11.285,27.155-11.285h38.348v-12.795c-10.68-8.022-23.958-12.769-38.348-12.769h63.853v-.192l-.026-.026ZM102.277,102.292v.077l-.077-.077h.077ZM102.277,153.65v-.013h.013l-.013.013ZM153.62,153.727l-.089-.09h.089v.09Z"/>
  <line x1="127.847" y1="127.946" x2="127.757" y2="127.856"/>
</svg>